<mxfile host="app.diagrams.net" modified="2022-05-17T04:19:48.331Z" agent="5.0 (Macintosh; Intel Mac OS X 10_15_7) AppleWebKit/537.36 (KHTML, like Gecko) Chrome/101.0.4951.64 Safari/537.36" etag="3tZB3bRkB3qc8k9skRCA" version="18.0.3" type="github">
  <diagram id="vYhIYeuhMKYq1YM2tLH0" name="Page-1">
    <mxGraphModel dx="2581" dy="971" grid="1" gridSize="10" guides="1" tooltips="1" connect="1" arrows="1" fold="1" page="1" pageScale="1" pageWidth="850" pageHeight="1100" math="0" shadow="0">
      <root>
        <mxCell id="0" />
        <mxCell id="1" parent="0" />
        <mxCell id="VPi010c3T4Fb0CU36pfW-24" value="&lt;b style=&quot;font-size: 16px;&quot;&gt;API Interface&lt;/b&gt;" style="rounded=1;whiteSpace=wrap;html=1;dashed=1;fontSize=16;fillColor=default;align=left;verticalAlign=top;spacingTop=22;spacingLeft=23;fillOpacity=50;" parent="1" vertex="1">
          <mxGeometry x="340" y="210" width="1030" height="130" as="geometry" />
        </mxCell>
        <mxCell id="VPi010c3T4Fb0CU36pfW-23" value="&lt;b style=&quot;font-size: 16px;&quot;&gt;Infrastructure&lt;/b&gt;" style="rounded=1;whiteSpace=wrap;html=1;dashed=1;fontSize=16;fillColor=default;align=left;verticalAlign=top;spacingTop=22;spacingLeft=23;fillOpacity=50;" parent="1" vertex="1">
          <mxGeometry x="340" y="860" width="1280" height="197" as="geometry" />
        </mxCell>
        <mxCell id="VPi010c3T4Fb0CU36pfW-22" value="&lt;b style=&quot;font-size: 16px;&quot;&gt;Domain Service&lt;/b&gt;" style="rounded=1;whiteSpace=wrap;html=1;dashed=1;fontSize=16;fillColor=default;align=left;verticalAlign=top;spacingTop=22;spacingLeft=23;fillOpacity=50;" parent="1" vertex="1">
          <mxGeometry x="340" y="450" width="1040" height="327" as="geometry" />
        </mxCell>
        <mxCell id="VPi010c3T4Fb0CU36pfW-5" style="edgeStyle=orthogonalEdgeStyle;rounded=0;orthogonalLoop=1;jettySize=auto;html=1;exitX=0.5;exitY=0;exitDx=0;exitDy=0;entryX=0.5;entryY=1;entryDx=0;entryDy=0;fontSize=16;" parent="1" source="00cH1n4YGTlZ0PjOOUdn-2" target="VPi010c3T4Fb0CU36pfW-1" edge="1">
          <mxGeometry relative="1" as="geometry">
            <Array as="points">
              <mxPoint x="1258" y="310" />
            </Array>
          </mxGeometry>
        </mxCell>
        <mxCell id="00cH1n4YGTlZ0PjOOUdn-2" value="Finding Route API Service" style="rounded=0;whiteSpace=wrap;html=1;fontSize=16;" parent="1" vertex="1">
          <mxGeometry x="1193" y="630" width="130" height="90" as="geometry" />
        </mxCell>
        <mxCell id="I0Hym0px__lbicgqqUY9-4" style="edgeStyle=orthogonalEdgeStyle;rounded=0;orthogonalLoop=1;jettySize=auto;html=1;entryX=0.75;entryY=1;entryDx=0;entryDy=0;fontSize=16;" parent="1" source="00cH1n4YGTlZ0PjOOUdn-4" target="VPi010c3T4Fb0CU36pfW-2" edge="1">
          <mxGeometry relative="1" as="geometry" />
        </mxCell>
        <mxCell id="00cH1n4YGTlZ0PjOOUdn-4" value="Message Broker" style="rounded=0;whiteSpace=wrap;html=1;fontSize=16;" parent="1" vertex="1">
          <mxGeometry x="560" y="918.5" width="160" height="80" as="geometry" />
        </mxCell>
        <mxCell id="I0Hym0px__lbicgqqUY9-2" style="edgeStyle=orthogonalEdgeStyle;rounded=0;orthogonalLoop=1;jettySize=auto;html=1;exitX=1;exitY=0.5;exitDx=0;exitDy=0;entryX=0.5;entryY=1;entryDx=0;entryDy=0;fontSize=16;" parent="1" source="00cH1n4YGTlZ0PjOOUdn-8" target="00cH1n4YGTlZ0PjOOUdn-2" edge="1">
          <mxGeometry relative="1" as="geometry" />
        </mxCell>
        <mxCell id="00cH1n4YGTlZ0PjOOUdn-8" value="Datastore&lt;br style=&quot;font-size: 16px;&quot;&gt;(Redis)" style="rounded=0;whiteSpace=wrap;html=1;fontSize=16;" parent="1" vertex="1">
          <mxGeometry x="830" y="918.5" width="130" height="80" as="geometry" />
        </mxCell>
        <mxCell id="VPi010c3T4Fb0CU36pfW-27" style="edgeStyle=orthogonalEdgeStyle;rounded=0;orthogonalLoop=1;jettySize=auto;html=1;exitX=0.5;exitY=0;exitDx=0;exitDy=0;entryX=0.5;entryY=1;entryDx=0;entryDy=0;fontSize=16;" parent="1" source="VPi010c3T4Fb0CU36pfW-1" target="VPi010c3T4Fb0CU36pfW-26" edge="1">
          <mxGeometry relative="1" as="geometry" />
        </mxCell>
        <mxCell id="VPi010c3T4Fb0CU36pfW-1" value="&lt;meta charset=&quot;utf-8&quot; style=&quot;font-size: 16px;&quot;&gt;&lt;span style=&quot;color: rgb(0, 0, 0); font-family: Helvetica; font-size: 16px; font-style: normal; font-variant-ligatures: normal; font-variant-caps: normal; font-weight: 400; letter-spacing: normal; orphans: 2; text-align: center; text-indent: 0px; text-transform: none; widows: 2; word-spacing: 0px; -webkit-text-stroke-width: 0px; background-color: rgb(248, 249, 250); text-decoration-thickness: initial; text-decoration-style: initial; text-decoration-color: initial; float: none; display: inline !important;&quot;&gt;REST&lt;/span&gt;" style="rounded=0;whiteSpace=wrap;html=1;fontSize=16;" parent="1" vertex="1">
          <mxGeometry x="1198" y="250" width="120" height="60" as="geometry" />
        </mxCell>
        <mxCell id="I0Hym0px__lbicgqqUY9-5" style="edgeStyle=orthogonalEdgeStyle;rounded=0;orthogonalLoop=1;jettySize=auto;html=1;exitX=1;exitY=0.5;exitDx=0;exitDy=0;entryX=0.5;entryY=0;entryDx=0;entryDy=0;fontSize=16;" parent="1" source="VPi010c3T4Fb0CU36pfW-2" target="00cH1n4YGTlZ0PjOOUdn-8" edge="1">
          <mxGeometry relative="1" as="geometry" />
        </mxCell>
        <mxCell id="VPi010c3T4Fb0CU36pfW-2" value="Finding Route Service Workers" style="rounded=0;whiteSpace=wrap;html=1;fontSize=16;" parent="1" vertex="1">
          <mxGeometry x="504" y="630" width="180" height="90" as="geometry" />
        </mxCell>
        <mxCell id="VPi010c3T4Fb0CU36pfW-20" value="" style="rounded=1;whiteSpace=wrap;html=1;fontSize=16;dashed=1;fillOpacity=50;" parent="1" vertex="1">
          <mxGeometry x="777.5" y="472.5" width="265" height="135" as="geometry" />
        </mxCell>
        <mxCell id="VPi010c3T4Fb0CU36pfW-19" value="Best pools for swap pair" style="ellipse;whiteSpace=wrap;html=1;fontSize=16;" parent="1" vertex="1">
          <mxGeometry x="850" y="510" width="120" height="80" as="geometry" />
        </mxCell>
        <mxCell id="VPi010c3T4Fb0CU36pfW-21" value="&lt;b style=&quot;font-size: 16px;&quot;&gt;Domain&lt;/b&gt;" style="text;html=1;strokeColor=none;fillColor=none;align=center;verticalAlign=middle;whiteSpace=wrap;rounded=0;dashed=1;fontSize=16;" parent="1" vertex="1">
          <mxGeometry x="790" y="480" width="60" height="30" as="geometry" />
        </mxCell>
        <mxCell id="VPi010c3T4Fb0CU36pfW-26" value="Clients" style="ellipse;whiteSpace=wrap;html=1;aspect=fixed;shadow=1;fontSize=16;fillColor=default;" parent="1" vertex="1">
          <mxGeometry x="1218" y="50" width="80" height="80" as="geometry" />
        </mxCell>
        <mxCell id="16qS6FBjM1rck1U_qFPr-1" style="edgeStyle=orthogonalEdgeStyle;rounded=0;orthogonalLoop=1;jettySize=auto;html=1;exitX=1;exitY=0.5;exitDx=0;exitDy=0;entryX=0;entryY=0.5;entryDx=0;entryDy=0;fontSize=16;" edge="1" parent="1" source="I0Hym0px__lbicgqqUY9-6" target="VPi010c3T4Fb0CU36pfW-2">
          <mxGeometry relative="1" as="geometry" />
        </mxCell>
        <mxCell id="16qS6FBjM1rck1U_qFPr-2" value="On init: Get pools state to bootstrap data" style="edgeLabel;html=1;align=center;verticalAlign=middle;resizable=0;points=[];fontSize=16;" vertex="1" connectable="0" parent="16qS6FBjM1rck1U_qFPr-1">
          <mxGeometry x="-0.7265" y="1" relative="1" as="geometry">
            <mxPoint x="104" y="-14" as="offset" />
          </mxGeometry>
        </mxCell>
        <mxCell id="I0Hym0px__lbicgqqUY9-6" value="Pool Service" style="rounded=0;whiteSpace=wrap;html=1;fontSize=16;" parent="1" vertex="1">
          <mxGeometry x="-90" y="625" width="180" height="100" as="geometry" />
        </mxCell>
        <mxCell id="I0Hym0px__lbicgqqUY9-8" style="edgeStyle=orthogonalEdgeStyle;rounded=0;orthogonalLoop=1;jettySize=auto;html=1;entryX=1;entryY=0.5;entryDx=0;entryDy=0;fontSize=16;startArrow=none;startFill=0;endArrow=classic;endFill=1;" parent="1" source="I0Hym0px__lbicgqqUY9-7" target="00cH1n4YGTlZ0PjOOUdn-2" edge="1">
          <mxGeometry relative="1" as="geometry" />
        </mxCell>
        <mxCell id="I0Hym0px__lbicgqqUY9-11" value="Get price of token in/out in USD" style="edgeLabel;html=1;align=center;verticalAlign=middle;resizable=0;points=[];fontSize=16;" parent="I0Hym0px__lbicgqqUY9-8" vertex="1" connectable="0">
          <mxGeometry x="-0.6933" y="-1" relative="1" as="geometry">
            <mxPoint x="-77" y="-14" as="offset" />
          </mxGeometry>
        </mxCell>
        <mxCell id="I0Hym0px__lbicgqqUY9-7" value="Price Service" style="rounded=0;whiteSpace=wrap;html=1;fontSize=16;" parent="1" vertex="1">
          <mxGeometry x="1670" y="625" width="180" height="100" as="geometry" />
        </mxCell>
      </root>
    </mxGraphModel>
  </diagram>
</mxfile>
